<mxfile host="app.diagrams.net" agent="Mozilla/5.0 (Macintosh; Intel Mac OS X 10_15_7) AppleWebKit/537.36 (KHTML, like Gecko) Chrome/135.0.0.0 Safari/537.36" version="26.3.0">
  <diagram name="第 1 页" id="jg51IbSkHHGkqf1mg5f_">
    <mxGraphModel dx="1426" dy="791" grid="1" gridSize="10" guides="1" tooltips="1" connect="1" arrows="1" fold="1" page="1" pageScale="1" pageWidth="827" pageHeight="1169" math="0" shadow="0">
      <root>
        <mxCell id="0" />
        <mxCell id="1" parent="0" />
        <mxCell id="4cr2VuFaClWVb-l9LPIL-9" value="" style="swimlane;childLayout=stackLayout;resizeParent=1;resizeParentMax=0;startSize=20;html=1;" vertex="1" parent="1">
          <mxGeometry x="130" y="90" width="390" height="560" as="geometry" />
        </mxCell>
        <mxCell id="4cr2VuFaClWVb-l9LPIL-10" value="web" style="swimlane;startSize=20;html=1;" vertex="1" parent="4cr2VuFaClWVb-l9LPIL-9">
          <mxGeometry y="20" width="120" height="540" as="geometry" />
        </mxCell>
        <mxCell id="4cr2VuFaClWVb-l9LPIL-13" value="导入私钥" style="ellipse;whiteSpace=wrap;html=1;aspect=fixed;" vertex="1" parent="4cr2VuFaClWVb-l9LPIL-10">
          <mxGeometry x="35" y="50" width="50" height="50" as="geometry" />
        </mxCell>
        <mxCell id="4cr2VuFaClWVb-l9LPIL-24" value="导出私钥" style="ellipse;whiteSpace=wrap;html=1;aspect=fixed;" vertex="1" parent="4cr2VuFaClWVb-l9LPIL-10">
          <mxGeometry x="35" y="150" width="50" height="50" as="geometry" />
        </mxCell>
        <mxCell id="4cr2VuFaClWVb-l9LPIL-11" value="cxo-user-center" style="swimlane;startSize=20;html=1;" vertex="1" parent="4cr2VuFaClWVb-l9LPIL-9">
          <mxGeometry x="120" y="20" width="130" height="540" as="geometry" />
        </mxCell>
        <mxCell id="4cr2VuFaClWVb-l9LPIL-14" value="user_id-wallet-chain" style="rounded=1;whiteSpace=wrap;html=1;" vertex="1" parent="4cr2VuFaClWVb-l9LPIL-11">
          <mxGeometry x="25" y="60" width="70" height="30" as="geometry" />
        </mxCell>
        <mxCell id="4cr2VuFaClWVb-l9LPIL-25" value="获取钱包列表" style="rounded=1;whiteSpace=wrap;html=1;" vertex="1" parent="4cr2VuFaClWVb-l9LPIL-11">
          <mxGeometry x="25" y="160" width="70" height="30" as="geometry" />
        </mxCell>
        <mxCell id="4cr2VuFaClWVb-l9LPIL-12" value="sign-center" style="swimlane;startSize=20;html=1;" vertex="1" parent="4cr2VuFaClWVb-l9LPIL-9">
          <mxGeometry x="250" y="20" width="140" height="540" as="geometry" />
        </mxCell>
        <mxCell id="4cr2VuFaClWVb-l9LPIL-22" style="edgeStyle=orthogonalEdgeStyle;rounded=0;orthogonalLoop=1;jettySize=auto;html=1;exitX=1;exitY=0.5;exitDx=0;exitDy=0;" edge="1" parent="4cr2VuFaClWVb-l9LPIL-12" source="4cr2VuFaClWVb-l9LPIL-19">
          <mxGeometry relative="1" as="geometry">
            <mxPoint x="180" y="75" as="targetPoint" />
          </mxGeometry>
        </mxCell>
        <mxCell id="4cr2VuFaClWVb-l9LPIL-19" value="多链与多存储处理" style="rounded=1;whiteSpace=wrap;html=1;" vertex="1" parent="4cr2VuFaClWVb-l9LPIL-12">
          <mxGeometry x="30" y="60" width="80" height="30" as="geometry" />
        </mxCell>
        <mxCell id="4cr2VuFaClWVb-l9LPIL-26" value="导出" style="rounded=1;whiteSpace=wrap;html=1;" vertex="1" parent="4cr2VuFaClWVb-l9LPIL-12">
          <mxGeometry x="30" y="160" width="80" height="30" as="geometry" />
        </mxCell>
        <mxCell id="4cr2VuFaClWVb-l9LPIL-17" style="edgeStyle=orthogonalEdgeStyle;rounded=0;orthogonalLoop=1;jettySize=auto;html=1;exitX=1;exitY=0.5;exitDx=0;exitDy=0;entryX=0;entryY=0.5;entryDx=0;entryDy=0;" edge="1" parent="4cr2VuFaClWVb-l9LPIL-9" source="4cr2VuFaClWVb-l9LPIL-13" target="4cr2VuFaClWVb-l9LPIL-14">
          <mxGeometry relative="1" as="geometry" />
        </mxCell>
        <mxCell id="4cr2VuFaClWVb-l9LPIL-20" style="edgeStyle=orthogonalEdgeStyle;rounded=0;orthogonalLoop=1;jettySize=auto;html=1;exitX=1;exitY=0.5;exitDx=0;exitDy=0;entryX=0;entryY=0.5;entryDx=0;entryDy=0;" edge="1" parent="4cr2VuFaClWVb-l9LPIL-9" source="4cr2VuFaClWVb-l9LPIL-14" target="4cr2VuFaClWVb-l9LPIL-19">
          <mxGeometry relative="1" as="geometry" />
        </mxCell>
        <mxCell id="4cr2VuFaClWVb-l9LPIL-15" value="本地私钥管理" style="shape=cylinder3;whiteSpace=wrap;html=1;boundedLbl=1;backgroundOutline=1;size=15;" vertex="1" parent="1">
          <mxGeometry x="550" y="150" width="50" height="65" as="geometry" />
        </mxCell>
        <mxCell id="4cr2VuFaClWVb-l9LPIL-16" value="外部私钥管理" style="shape=cylinder3;whiteSpace=wrap;html=1;boundedLbl=1;backgroundOutline=1;size=15;" vertex="1" parent="1">
          <mxGeometry x="550" y="50" width="50" height="60" as="geometry" />
        </mxCell>
        <mxCell id="4cr2VuFaClWVb-l9LPIL-23" style="edgeStyle=orthogonalEdgeStyle;rounded=0;orthogonalLoop=1;jettySize=auto;html=1;exitX=1;exitY=0.25;exitDx=0;exitDy=0;entryX=0;entryY=0.5;entryDx=0;entryDy=0;entryPerimeter=0;" edge="1" parent="1" source="4cr2VuFaClWVb-l9LPIL-19" target="4cr2VuFaClWVb-l9LPIL-16">
          <mxGeometry relative="1" as="geometry">
            <Array as="points">
              <mxPoint x="530" y="178" />
              <mxPoint x="530" y="80" />
            </Array>
          </mxGeometry>
        </mxCell>
      </root>
    </mxGraphModel>
  </diagram>
</mxfile>
